<svg xmlns="http://www.w3.org/2000/svg" width="71" height="68" viewBox="0 0 71 68">
  <g id="Group_25" data-name="Group 25" transform="translate(-188 -7436)">
    <rect id="Rectangle_57" data-name="Rectangle 57" width="71" height="68" transform="translate(188 7436)" fill="#7b4c99"/>
    <path id="_003-computer" data-name="003-computer" d="M1.25,8.155A4.905,4.905,0,0,1,6.155,3.25H34.7A4.905,4.905,0,0,1,39.6,8.155V25.993A4.905,4.905,0,0,1,34.7,30.9H24.374l1.338,2.676h3.633a1.338,1.338,0,1,1,0,2.676H11.507a1.338,1.338,0,0,1,0-2.676h3.633L16.477,30.9H6.155A4.905,4.905,0,0,1,1.25,25.993ZM34.7,28.223H6.155a2.23,2.23,0,0,1-2.23-2.23V8.155a2.23,2.23,0,0,1,2.23-2.23H34.7a2.23,2.23,0,0,1,2.23,2.23V25.993A2.23,2.23,0,0,1,34.7,28.223Z" transform="translate(202.75 7450.75)" fill="#fff" fill-rule="evenodd"/>
  </g>
</svg>
