<svg xmlns="http://www.w3.org/2000/svg" width="71" height="68" viewBox="0 0 71 68">
  <g id="Group_29" data-name="Group 29" transform="translate(-188 -7715)">
    <rect id="Rectangle_57" data-name="Rectangle 57" width="71" height="68" transform="translate(188 7715)" fill="#7b4c99"/>
    <g id="_005-wallet-filled-money-tool" data-name="005-wallet-filled-money-tool" transform="translate(206 7733)">
      <g id="Group_12" data-name="Group 12" transform="translate(0 0)">
        <path id="Path_5" data-name="Path 5" d="M161.226,23.62l12.608-3.442-.668-1.35a1.777,1.777,0,0,0-2.38-.8L159.5,23.62Z" transform="translate(-152.934 -17.84)" fill="#fff"/>
        <path id="Path_6" data-name="Path 6" d="M334.477,86.46a1.775,1.775,0,0,0-.469.064l-2.962.81L322,89.8h14.743l-.554-2.032A1.773,1.773,0,0,0,334.477,86.46Z" transform="translate(-308.701 -84.023)" fill="#fff"/>
        <path id="Path_7" data-name="Path 7" d="M30.616,215.56H1.944a2.007,2.007,0,0,0-1.517.668,1.727,1.727,0,0,0-.357.643,1.693,1.693,0,0,0-.07.465v19.786A1.864,1.864,0,0,0,1.94,238.9H30.612a1.864,1.864,0,0,0,1.94-1.776v-4.955H21.042a3.17,3.17,0,0,1-3.3-3.019V225.2a2.88,2.88,0,0,1,.935-2.1,3.385,3.385,0,0,1,1.967-.891,3.575,3.575,0,0,1,.392-.021H32.552v-4.848A1.858,1.858,0,0,0,30.616,215.56Z" transform="translate(0 -205.898)" fill="#fff"/>
        <path id="Path_8" data-name="Path 8" d="M505.96,437.226a1.774,1.774,0,0,0-.622-.369,1.811,1.811,0,0,0-.575-.1H494.176a1.776,1.776,0,0,0-1.776,1.776v3.953a1.776,1.776,0,0,0,1.776,1.776h10.587a1.809,1.809,0,0,0,.575-.1,1.722,1.722,0,0,0,.622-.369,1.77,1.77,0,0,0,.579-1.311v-3.953A1.77,1.77,0,0,0,505.96,437.226Zm-8.076,3.64a.888.888,0,0,1-.888.888h-.59a.888.888,0,0,1-.888-.888v-.59a.87.87,0,0,1,.341-.7.9.9,0,0,1,.547-.192H497a.888.888,0,0,1,.888.888v.59Z" transform="translate(-472.162 -420.164)" fill="#fff"/>
      </g>
    </g>
  </g>
</svg>
