<svg xmlns="http://www.w3.org/2000/svg" width="71" height="68" viewBox="0 0 71 68">
  <g id="Group_27" data-name="Group 27" transform="translate(-920 -7715)">
    <rect id="Rectangle_57" data-name="Rectangle 57" width="71" height="68" transform="translate(920 7715)" fill="#7b4c99"/>
    <g id="XMLID_2_" transform="translate(941 7733)">
      <g id="Group_14" data-name="Group 14" transform="translate(0)">
        <g id="Group_13" data-name="Group 13">
          <path id="Path_9" data-name="Path 9" d="M49.274,281.314a7.739,7.739,0,0,1-5.809,2.448H40.118a2.7,2.7,0,0,1-2.513-1.455,9.614,9.614,0,0,1-1.352-.441,9.206,9.206,0,0,1-2.525-1.543c-4.835.877-8.454,4.436-8.454,8.693v.556a1.552,1.552,0,0,0,1.677,1.385H52.968a1.552,1.552,0,0,0,1.677-1.385v-.556C54.645,285.727,52.485,282.856,49.274,281.314Z" transform="translate(-25.274 -257.958)" fill="#fff"/>
          <path id="Path_10" data-name="Path 10" d="M93.677,13.767a2.232,2.232,0,0,0,1.813-.817l.028.058.008.017a7.268,7.268,0,0,0,4.553,3.654,3.182,3.182,0,0,1,2.453-1.034h3.626a2.534,2.534,0,0,0,.993-.2,3.554,3.554,0,0,0,1.172-1.031,7.324,7.324,0,0,0,.907-1.461,1.81,1.81,0,0,0,.572.5v.678c0,1.532-1.635,2.778-3.644,2.778h-3.626a1.124,1.124,0,0,0-1.241.946,1.124,1.124,0,0,0,1.241.946h3.626c3.378,0,6.127-2.1,6.127-4.67v-.678a1.492,1.492,0,0,0,.828-1.262V8.243a1.5,1.5,0,0,0-.859-1.279C111.85,3.073,107.567,0,102.36,0s-9.49,3.073-9.893,6.964a1.5,1.5,0,0,0-.859,1.279V12.19A1.875,1.875,0,0,0,93.677,13.767ZM102.36,1.893c3.854,0,7.034,2.245,7.405,5.11a1.757,1.757,0,0,0-.581.548,7.869,7.869,0,0,0-13.643-.009l0,.009A1.758,1.758,0,0,0,94.955,7C95.326,4.138,98.506,1.893,102.36,1.893Z" transform="translate(-87.675)" fill="#fff"/>
        </g>
      </g>
    </g>
  </g>
</svg>
