<svg xmlns="http://www.w3.org/2000/svg" xmlns:xlink="http://www.w3.org/1999/xlink" width="161.911" height="53.596" viewBox="0 0 161.911 53.596">
  <defs>
    <linearGradient id="linear-gradient" x1="0.462" y1="0.367" x2="0.508" y2="0.817" gradientUnits="objectBoundingBox">
      <stop offset="0" stop-color="#ab6cac"/>
      <stop offset="1" stop-color="#4b2d86"/>
    </linearGradient>
    <linearGradient id="linear-gradient-2" x1="0.55" y1="0.312" x2="0.322" y2="0.675" xlink:href="#linear-gradient"/>
    <linearGradient id="linear-gradient-3" x1="0.641" y1="0.35" x2="0.386" y2="0.613" xlink:href="#linear-gradient"/>
    <linearGradient id="linear-gradient-4" x1="0.283" y1="0.137" x2="0.795" y2="1.001" xlink:href="#linear-gradient"/>
    <linearGradient id="linear-gradient-5" x1="0" y1="0.5" x2="1" y2="0.5" xlink:href="#linear-gradient"/>
    <linearGradient id="linear-gradient-6" x1="0.675" y1="-0.181" x2="0.185" y2="1.598" xlink:href="#linear-gradient"/>
  </defs>
  <g id="Logo_1_" data-name="Logo (1)" transform="translate(0.003)">
    <path id="Path_11" d="M34.2,47.446c.623,1.694,1.185,3.225,1.824,4.961-8.5,2.882-16.426,2.083-23.872-2.669a26.416,26.416,0,0,1,7.625-47.8c.441,1.622.881,3.248,1.347,4.95A21.384,21.384,0,0,0,6.949,19.857a20.046,20.046,0,0,0-.29,14.5,20.771,20.771,0,0,0,10.91,12.347A21.033,21.033,0,0,0,34.2,47.446Z" transform="translate(0 -0.487)" fill="url(#linear-gradient)"/>
    <path id="Path_12" d="M38.13,38.093c-1.316,2.331-2.512,4.719-3.959,6.942-1.265,1.946-4.218,1.638-5.438-.477-1.455-2.52-2.834-5.084-4.242-7.633q-3.235-5.847-6.454-11.7a6.429,6.429,0,0,1-.76-1.831,3.137,3.137,0,0,1,2.166-3.721,3.3,3.3,0,0,1,4,1.686q3.684,6.677,7.358,13.364c.232.42.484.828.828,1.413l2.791-4.92C35.718,33.619,36.9,35.815,38.13,38.093Z" transform="translate(-4.328 -4.909)" fill="url(#linear-gradient-2)"/>
    <path id="Path_13" d="M54.884,42.93a3.588,3.588,0,0,1-2.567,3.248,3.311,3.311,0,0,1-3.864-1.623c-1.8-3.174-3.539-6.374-5.3-9.566-1.9-3.437-3.8-6.872-5.68-10.318-1.075-1.971-.62-4.033,1.053-4.96,1.778-.985,3.763-.314,4.859,1.666Q48.78,31.131,54.15,40.9A13.74,13.74,0,0,1,54.884,42.93Z" transform="translate(-9.285 -4.848)" fill="url(#linear-gradient-3)"/>
    <path id="Path_14" d="M61.441,30.526a3.181,3.181,0,0,1-3-4.608,48.731,48.731,0,0,1,2.8-4.929,3.256,3.256,0,0,1,5.662,3.2c-.869,1.714-1.871,3.367-2.869,5.014A2.856,2.856,0,0,1,61.441,30.526Z" transform="translate(-14.624 -4.904)" fill="url(#linear-gradient-4)"/>
    <path id="Path_15" d="M33.4,0A3.088,3.088,0,1,1,30.28,3.116,3.04,3.04,0,0,1,33.243,0Z" transform="translate(-7.621)" fill="url(#linear-gradient-5)"/>
    <path id="Path_16" d="M76.635,43.8h2.882V25.463H76.635Zm5.029,0h2.567V30.414h.052L87.74,43.8H90.7V25.463H88.133V36.438h-.052l-2.8-10.975H81.664V43.8Zm11.184,0h4.4c2.881,0,4.295-1.6,4.295-4.531V29.994c0-2.933-1.414-4.531-4.295-4.531h-4.4Zm2.881-2.619v-13.1H97.2c.917,0,1.467.471,1.467,1.781V39.4c0,1.31-.55,1.78-1.467,1.78H95.729Zm7.753,2.619h7.857V41.178h-4.976v-5.63h3.955V32.929h-3.955V28.083h4.976V25.464h-7.857V43.8Zm8.774,0h2.724l2.148-6.39h.052l2.1,6.39h3.038l-3.326-9.376,3.168-8.958h-2.724l-1.991,5.919h-.049l-1.939-5.919h-3.038l3.165,8.958Zm16.789,0h3.824l1.31-12.362h.052L135.54,43.8h3.588l1.859-18.334H138.5l-1.28,14.091h-.052L135.8,25.463h-3.143L131.3,39.554h-.052l-1.281-14.091h-2.776Zm17.575.263c2.829,0,4.374-1.676,4.374-4.609V29.812c0-2.933-1.545-4.61-4.374-4.61s-4.374,1.676-4.374,4.61v9.639c0,2.933,1.545,4.607,4.374,4.607Zm0-2.619c-.917,0-1.5-.5-1.5-1.807V29.628c0-1.31.576-1.807,1.5-1.807s1.5.5,1.5,1.807V39.634c0,1.31-.58,1.806-1.5,1.806Zm6.312,2.356h2.882V35.94h1c1.31,0,1.807.551,1.807,2.253v3.352a5.619,5.619,0,0,0,.262,2.252h2.933a5.406,5.406,0,0,1-.314-2.226V38.349c0-2.07-.471-3.431-1.912-3.876v-.052c1.283-.524,1.886-1.729,1.886-3.614V29.684c0-2.829-1.283-4.217-4.269-4.217h-4.269V43.8Zm2.881-10.477V28.082h1.31c1.021,0,1.467.577,1.467,1.887v1.414c0,1.467-.655,1.938-1.729,1.938h-1.048ZM163.49,43.8h7.618V41.178h-4.741V25.463H163.49Zm9.01,0h4.4c2.882,0,4.3-1.6,4.3-4.531V29.994c0-2.933-1.414-4.531-4.3-4.531h-4.4Zm2.881-2.619v-13.1h1.467c.917,0,1.467.471,1.467,1.781V39.4c0,1.31-.549,1.78-1.467,1.78h-1.467Z" transform="translate(-19.287 -6.343)" fill="url(#linear-gradient-6)"/>
  </g>
</svg>
